Coordinates
version=1
nRows=22
nColumns=33
inDegrees=yes

Units are S.I. units (second, meters, Newtons, ...)
Angles are in degrees.

endheader
time	ground_thorax_rot_x	ground_thorax_rot_y	ground_thorax_rot_z	ground_thorax_tx	ground_thorax_ty	ground_thorax_tz	clav_prot_r	clav_elev_r	scapula_abduction_r	scapula_elevation_r	scapula_upward_rot_r	scapula_winging_r	shoulder_elv_r	plane_of_elev_r	axial_rot_r	elbow_flexion_r	pro_sup_r	wrist_flex_r	wrist_dev_r	clav_prot_l	clav_elev_l	scapula_abduction_l	scapula_elevation_l	scapula_upward_rot_l	scapula_winging_l	shoulder_elv_l	plane_of_elev_l	axial_rot_l	elbow_flexion_l	pro_sup_l	wrist_flex_l	wrist_dev_l	
3.2600	-29.594876	-26.774303	37.126170	22.311009	784.851497	-41.235082	27.079236	-45.000000	38.030910	-45.000000	-45.000000	-4409.933331	-1728.701544	21.741404	180.000000	1804.801952	-166.463737	11.975519	12.697124	1.939428	26.615125	-23.982197	-45.000000	-45.000000	-4609.533121	-2425.957351	17.552443	-180.000000	1799.357990	-177.442937	13.021920	-13.355734	
3.2700	-29.626900	-26.771270	37.136212	22.039151	785.111202	-41.260064	27.097493	-45.000000	38.054407	-45.000000	-45.000000	-4410.003718	-1728.640439	21.802658	180.000000	1804.776825	-166.589050	11.976558	12.684590	1.935714	26.663134	-24.025834	-45.000000	-45.000000	-4609.395921	-2425.922143	17.584187	-180.000000	1799.390769	-177.369352	12.905718	-13.393590	
3.2800	-29.676005	-26.753458	37.130646	21.731813	785.399523	-41.287222	27.151435	-45.000000	38.067390	-45.000000	-45.000000	-4410.110935	-1728.598619	21.899960	180.000000	1804.743701	-166.706881	11.937599	12.681226	1.912354	26.718967	-24.112135	-45.000000	-45.000000	-4609.214624	-2425.929056	17.645599	-180.000000	1799.454125	-177.311882	12.748969	-13.489993	
3.2900	-29.728968	-26.737677	37.124706	21.349110	785.746864	-41.321855	27.161778	-45.000000	38.071821	-45.000000	-45.000000	-4410.207509	-1728.540400	21.983462	180.000000	1804.703824	-166.821266	11.928778	12.679610	1.899549	26.768063	-24.189788	-45.000000	-45.000000	-4609.046755	-2425.901929	17.691109	-180.000000	1799.492113	-177.258565	12.607904	-13.556158	
3.3000	-29.787690	-26.724732	37.114871	20.884346	786.159468	-41.363632	27.152515	-45.000000	38.068768	-45.000000	-45.000000	-4410.303698	-1728.474931	22.061105	180.000000	1804.655821	-166.934396	11.942520	12.682919	1.889944	26.817412	-24.262737	-45.000000	-45.000000	-4608.881348	-2425.853709	17.727621	-180.000000	1799.512877	-177.210574	12.476295	-13.604419	
3.3100	-29.855214	-26.713167	37.098522	20.326212	786.646537	-41.413400	27.130124	-45.000000	38.057466	-45.000000	-45.000000	-4410.406439	-1728.403306	22.140916	180.000000	1804.599128	-167.048762	11.964380	12.692315	1.882616	26.868480	-24.343840	-45.000000	-45.000000	-4608.707261	-2425.796491	17.762782	-180.000000	1799.531749	-177.169544	12.344893	-13.657453	
3.3200	-29.932173	-26.706542	37.061667	19.673574	787.209012	-41.470872	27.092428	-45.000000	38.049665	-45.000000	-45.000000	-4410.504793	-1728.326777	22.220306	180.000000	1804.534942	-167.173336	12.018182	12.714590	1.883292	26.924866	-24.406992	-45.000000	-45.000000	-4608.532552	-2425.706996	17.800118	-180.000000	1799.530866	-177.126198	12.230164	-13.688687	
3.3300	-30.020250	-26.698775	37.008177	18.930034	787.843673	-41.535565	27.053298	-45.000000	38.042666	-45.000000	-45.000000	-4410.613765	-1728.250589	22.310345	180.000000	1804.465125	-167.314161	12.068193	12.747490	1.884330	26.984672	-24.485127	-45.000000	-45.000000	-4608.335813	-2425.622602	17.846451	-180.000000	1799.532844	-177.083075	12.111726	-13.745971	
3.3400	-30.118490	-26.690766	36.928727	18.099656	788.546269	-41.607439	27.004713	-45.000000	38.043767	-45.000000	-45.000000	-4410.719444	-1728.170262	22.403493	180.000000	1804.392574	-167.484052	12.144103	12.796241	1.891353	27.050166	-24.544546	-45.000000	-45.000000	-4608.137780	-2425.506641	17.900099	-180.000000	1799.511033	-177.028047	12.009356	-13.787886	
3.3500	-30.216940	-26.685909	36.850449	17.185602	789.313287	-41.686811	26.950387	-45.000000	38.044749	-45.000000	-45.000000	-4410.829352	-1728.083252	22.491732	180.000000	1804.318054	-167.691268	12.212178	12.845188	1.899848	27.115694	-24.625695	-45.000000	-45.000000	-4607.927671	-2425.405257	17.944050	-180.000000	1799.494663	-176.963599	11.911413	-13.855815	
3.3600	-30.320163	-26.677594	36.759556	16.190102	790.142154	-41.774375	26.895593	-45.000000	38.043363	-45.000000	-44.999999	-4410.941279	-1727.990451	22.580002	180.000000	1804.240644	-167.943780	12.288580	12.902081	1.904949	27.184789	-24.704336	-45.000000	-45.000000	-4607.717525	-2425.290179	17.988212	-180.000000	1799.467723	-176.884466	11.820152	-13.921166	
3.3700	-30.420428	-26.670962	36.679534	15.113634	791.032340	-41.871449	26.841405	-45.000000	38.033130	-45.000000	-44.999999	-4411.061409	-1727.890826	22.660916	180.000000	1804.161338	-168.242976	12.348530	12.955828	1.906849	27.252116	-24.806883	-45.000000	-45.000000	-4607.500576	-2425.194520	18.016653	-180.000000	1799.447841	-176.796247	11.730332	-14.013519	
3.3800	-30.531937	-26.656083	36.579620	13.956574	791.983931	-41.979418	26.792864	-45.000000	38.013481	-45.000000	-44.999998	-4411.186606	-1727.786661	22.749800	180.000000	1804.079374	-168.584725	12.413718	13.021595	1.905444	27.323719	-24.903515	-45.000000	-45.000000	-4607.283896	-2425.079792	18.055324	-180.000000	1799.422523	-176.699076	11.646230	-14.101275	
3.3900	-30.647468	-26.643361	36.473941	12.719586	792.997461	-42.099542	26.740036	-45.000000	37.993451	-45.000000	-44.999996	-4411.312644	-1727.678143	22.834657	180.000000	1803.995734	-168.960049	12.476710	13.090158	1.909423	27.396394	-25.009154	-45.000000	-45.000000	-4607.063319	-2424.969461	18.087113	-180.000000	1799.401520	-176.601006	11.576513	-14.198550	
3.4000	-30.784652	-26.617502	36.327719	11.405236	794.072390	-42.232540	26.689612	-45.000000	37.973818	-45.000000	-44.999993	-4411.442790	-1727.571871	22.937162	180.000000	1803.907610	-169.354493	12.547748	13.176604	1.913080	27.474299	-25.108788	-45.000000	-45.000000	-4606.833232	-2424.840929	18.143291	-180.000000	1799.375656	-176.509620	11.513588	-14.292783	
3.4100	-30.939762	-26.583437	36.147427	10.017352	795.207653	-42.378807	26.634248	-45.000000	37.966344	-45.000000	-44.999988	-4411.575336	-1727.471291	23.049430	180.000000	1803.817579	-169.754204	12.622689	13.275383	1.921432	27.554636	-25.213299	-45.000000	-45.000000	-4606.592269	-2424.712163	18.211890	-180.000000	1799.350401	-176.432913	11.467327	-14.391859	
3.4200	-31.112714	-26.536905	35.932518	8.561056	796.401369	-42.538412	26.576112	-45.000000	37.966666	-45.000000	-44.999979	-4411.711939	-1727.373199	23.170874	180.000000	1803.722314	-170.147546	12.706745	13.384600	1.930334	27.637189	-25.319608	-45.000000	-45.000000	-4606.342164	-2424.577411	18.296099	-180.000000	1799.319847	-176.377213	11.431287	-14.487493	
3.4300	-31.284637	-26.493112	35.716051	7.041907	797.651411	-42.711335	26.513238	-45.000000	37.978226	-45.000000	-44.999962	-4411.848155	-1727.270318	23.281780	180.000000	1803.625098	-170.529452	12.792959	13.486414	1.940639	27.720868	-25.436950	-45.000000	-45.000000	-4606.091066	-2424.455832	18.364210	-180.000000	1799.289188	-176.347274	11.408694	-14.584964	
3.4400	-31.453429	-26.452041	35.503418	5.465378	798.955515	-42.897460	26.450496	-45.000000	37.988631	-45.000000	-44.999932	-4411.984763	-1727.158004	23.382274	180.000000	1803.523300	-170.897195	12.884430	13.576713	1.949442	27.804775	-25.559678	-45.000000	-45.000000	-4605.840518	-2424.340312	18.415976	-180.000000	1799.250311	-176.345879	11.390740	-14.679354	
3.4500	-31.623631	-26.409568	35.283808	3.836410	800.311413	-43.096468	26.391080	-45.000000	37.997459	-45.000000	-44.999878	-4412.122213	-1727.038380	23.482151	180.000000	1803.421741	-171.248771	12.979924	13.659168	1.958206	27.890912	-25.684073	-45.000000	-45.000000	-4605.590998	-2424.225107	18.462188	-180.000000	1799.210125	-176.373431	11.377713	-14.770370	
3.4600	-31.794634	-26.362936	35.054845	2.158840	801.716963	-43.307561	26.330086	-45.000000	38.006526	-45.000000	-44.999781	-4412.261406	-1726.913263	23.577975	180.000000	1803.316191	-171.584653	13.079373	13.731169	1.970426	27.974113	-25.814473	-45.000000	-45.000000	-4605.344968	-2424.112567	18.498220	-180.000000	1799.164676	-176.431257	11.365067	-14.858263	
3.4700	-31.963556	-26.316388	34.818519	0.435720	803.169632	-43.529171	26.270021	-45.000000	38.019481	-45.000000	-44.999608	-4412.402189	-1726.784271	23.670386	180.000000	1803.211940	-171.909458	13.180155	13.796007	1.982155	28.059310	-25.944004	-45.000000	-45.000000	-4605.104617	-2424.001558	18.526353	-180.000000	1799.115881	-176.518177	11.353238	-14.942688	
